<svg xmlns="http://www.w3.org/2000/svg" xmlns:xlink="http://www.w3.org/1999/xlink" xmlns:lucid="lucid" width="1251" height="840"><g transform="translate(-1100 -360)" lucid:page-tab-id="gFUwOhZxl1Hi"><path d="M1120 380h1040v600H1120z" stroke="#000" stroke-width="2" fill="#e3fae3"/><path d="M1638.67 1060h180v120h-180z" stroke="#000" stroke-width="2" fill="#fff"/><use xlink:href="#a" transform="matrix(1,0,0,1,1650.6666666666667,1072) translate(56.396484375 53.396484375)"/><path d="M1940 1060h180v120h-180z" stroke="#000" stroke-width="2" fill="#fff"/><use xlink:href="#b" transform="matrix(1,0,0,1,1952,1072) translate(45.5947265625 53.396484375)"/><path d="M1300 1060h177.33v120H1300z" stroke="#000" stroke-width="2" fill="#fff"/><use xlink:href="#c" transform="matrix(1,0,0,1,1312,1072) translate(60.79736328125 53.396484375)"/><path d="M1479.33 1120h139.83" stroke="#000" stroke-width="2" fill="none"/><path d="M1479.36 1121h-1.03v-2h1.03z" stroke="#000" stroke-width=".05"/><path d="M1634.43 1120l-14.27 4.64v-9.28z" stroke="#000" stroke-width="2"/><path d="M2122 500h179.5M2122.03 500H2121" stroke="#000" stroke-width="2" fill="none"/><path d="M2316.76 500l-14.26 4.64v-9.28z" stroke="#000" stroke-width="2"/><path d="M2180 460h108.67v40H2180z" stroke="#000" stroke-opacity="0" stroke-width="2" fill="#fff" fill-opacity="0"/><use xlink:href="#d" transform="matrix(1,0,0,1,2185,465) translate(11.69384765625 20.021484375)"/><path d="M2138.5 540H2318" stroke="#000" stroke-width="2" fill="none"/><path d="M2123.24 540l14.26-4.64v9.28z" stroke="#000" stroke-width="2"/><path d="M2317.97 540h1.03" stroke="#000" stroke-width="2" fill="none"/><path d="M2179 500h108.67v40H2179z" stroke="#000" stroke-opacity="0" stroke-width="2" fill="#fff" fill-opacity="0"/><use xlink:href="#e" transform="matrix(1,0,0,1,2184,505) translate(11.69384765625 20.021484375)"/><path d="M2118.33 680h179.5M2118.36 680h-1.03" stroke="#000" stroke-width="2" fill="none"/><path d="M2313.1 680l-14.27 4.64v-9.28z" stroke="#000" stroke-width="2"/><path d="M2176.33 640H2285v40h-108.67z" stroke="#000" stroke-opacity="0" stroke-width="2" fill="#fff" fill-opacity="0"/><use xlink:href="#f" transform="matrix(1,0,0,1,2181.3333333333335,645) translate(11.69384765625 20.021484375)"/><path d="M2135.84 720h162" stroke="#000" stroke-width="2" fill="none"/><path d="M2120.57 720l14.27-4.64v9.28zM2313.1 720l-14.27 4.64v-9.28z" stroke="#000" stroke-width="2"/><path d="M2176.33 680H2285v40h-108.67z" stroke="#000" stroke-opacity="0" stroke-width="2" fill="#fff" fill-opacity="0"/><use xlink:href="#g" transform="matrix(1,0,0,1,2181.3333333333335,685) translate(11.69384765625 20.021484375)"/><path d="M1280 420h177.33v120H1280z" stroke="#000" stroke-width="2" fill="#fff"/><use xlink:href="#h" transform="matrix(1,0,0,1,1292,432) translate(44.5947265625 53.396484375)"/><path d="M1160 640h177.33v120H1160z" stroke="#000" stroke-width="2" fill="#fff"/><use xlink:href="#i" transform="matrix(1,0,0,1,1172,652) translate(60.79736328125 53.396484375)"/><path d="M1400 640h177.33v120H1400z" stroke="#000" stroke-width="2" fill="#fff"/><use xlink:href="#j" transform="matrix(1,0,0,1,1412,652) translate(60.79736328125 53.396484375)"/><path d="M1641.33 640h177.34v120h-177.34z" stroke="#000" stroke-width="2" fill="#fff"/><use xlink:href="#k" transform="matrix(1,0,0,1,1653.3333333333335,652) translate(44.5947265625 53.396484375)"/><path d="M1820.67 1120h99.83" stroke="#000" stroke-width="2" fill="none"/><path d="M1820.7 1121h-1.03v-2h1.02z" stroke="#000" stroke-width=".05"/><path d="M1935.76 1120l-14.26 4.64v-9.28z" stroke="#000" stroke-width="2"/><path d="M1942.67 460H2120v120h-177.33z" stroke="#000" stroke-width="2" fill="#fff"/><use xlink:href="#l" transform="matrix(1,0,0,1,1954.6666666666665,472) translate(55.396484375 53.396484375)"/><path d="M1940 640h177.33v120H1940z" stroke="#000" stroke-width="2" fill="#fff"/><use xlink:href="#m" transform="matrix(1,0,0,1,1952,652) translate(60.79736328125 53.396484375)"/><path d="M1942.67 820H2120v120h-177.33z" stroke="#000" stroke-width="2" fill="#fff"/><use xlink:href="#n" transform="matrix(1,0,0,1,1954.6666666666667,832) translate(22.9912109375 53.396484375)"/><use xlink:href="#o" transform="matrix(1,0,0,1,1954.6666666666667,832) translate(66.1982421875 53.396484375)"/><use xlink:href="#p" transform="matrix(1,0,0,1,1954.6666666666667,832) translate(87.8017578125 53.396484375)"/><path d="M1728.75 1040.5L1730 762" stroke="#000" stroke-width="2" fill="none"/><path d="M1728.68 1055.76l-4.57-14.28 9.28.04z" stroke="#000" stroke-width="2"/><path d="M1731 762.03h-2V761h2z" stroke="#000" stroke-width=".05"/><path d="M2031.33 942v98.5" stroke="#000" stroke-width="2" fill="none"/><path d="M2032.33 942.03h-2V941h2z" stroke="#000" stroke-width=".05"/><path d="M2031.33 1055.76l-4.63-14.26h9.27z" stroke="#000" stroke-width="2"/><path d="M2122 1120h179.5" stroke="#000" stroke-width="2" fill="none"/><path d="M2122.03 1121H2121v-2h1.03z" stroke="#000" stroke-width=".05"/><path d="M2316.76 1120l-14.26 4.64v-9.28z" stroke="#000" stroke-width="2"/><path d="M1820.67 700h99.83" stroke="#000" stroke-width="2" fill="none"/><path d="M1820.7 701h-1.03v-2h1.02z" stroke="#000" stroke-width=".05"/><path d="M1935.76 700l-14.26 4.64v-9.28z" stroke="#000" stroke-width="2"/><path d="M1923.16 520h-42.5v144h-60" stroke="#000" stroke-width="2" fill="none"/><path d="M1938.43 520l-14.27 4.64v-9.28z" stroke="#000" stroke-width="2"/><path d="M1820.7 665h-1.03v-2h1.02z" stroke="#000" stroke-width=".05"/><path d="M1923.16 880h-42.5V736h-60" stroke="#000" stroke-width="2" fill="none"/><path d="M1938.43 880l-14.27 4.64v-9.28z" stroke="#000" stroke-width="2"/><path d="M1820.7 737h-1.03v-2h1.02z" stroke="#000" stroke-width=".05"/><path d="M1388.67 1040.5V910h298V762" stroke="#000" stroke-width="2" fill="none"/><path d="M1388.67 1055.76l-4.64-14.26h9.27z" stroke="#000" stroke-width="2"/><path d="M1687.67 762.03h-2V761h2z" stroke="#000" stroke-width=".05"/><path d="M1321.6 620.5V542" stroke="#000" stroke-width="2" fill="none"/><path d="M1321.6 635.76l-4.64-14.26h9.28z" stroke="#000" stroke-width="2"/><path d="M1322.6 542.03h-2V541h2z" stroke="#000" stroke-width=".05"/><path d="M1421.33 620.5V542" stroke="#000" stroke-width="2" fill="none"/><path d="M1421.33 635.76l-4.63-14.26h9.27z" stroke="#000" stroke-width="2"/><path d="M1422.33 542.03h-2V541h2z" stroke="#000" stroke-width=".05"/><path d="M1730 620.5v-41.83h-307.67" stroke="#000" stroke-width="2" fill="none"/><path d="M1730 635.76l-4.64-14.26h9.28z" stroke="#000" stroke-width="2"/><path d="M1422.36 578.67h-1.03" stroke="#000" stroke-width="2" fill="none"/><path d="M1920 380h240v60h-240z" stroke="#000" stroke-opacity="0" stroke-width="2" fill="#fff" fill-opacity="0"/><g><use xlink:href="#q" transform="matrix(1,0,0,1,1925,385) translate(55.59033203125 30.021484375)"/></g><defs><path d="M473-1349c438-1 655 221 652 661C1122-268 945-8 532 0H162v-1349h311zm42 1193c308-4 416-205 418-532 2-330-131-509-459-505H353v1037h162" id="r"/><path d="M622-1349c296 4 497 117 497 404 0 282-193 424-485 431H353V0H162v-1349h460zm-15 684c195-3 320-88 320-277 0-184-129-255-328-254H353v531h254" id="s"/><path d="M709-1193V0H519v-1193H76v-156h1076v156H709" id="t"/><path d="M614-836l333-513h205L717-705 1193 0H988L614-573 241 0H36l476-705-435-644h205" id="u"/><g id="a"><use transform="matrix(0.0087890625,0,0,0.0087890625,0,0)" xlink:href="#r"/><use transform="matrix(0.0087890625,0,0,0.0087890625,10.8017578125,0)" xlink:href="#s"/><use transform="matrix(0.0087890625,0,0,0.0087890625,21.603515625,0)" xlink:href="#t"/><use transform="matrix(0.0087890625,0,0,0.0087890625,32.4052734375,0)" xlink:href="#u"/></g><path d="M614-1226c-167 1-283 53-283 213 0 183 186 193 334 234 230 63 463 120 463 409 0 286-219 387-518 390C309 23 131-98 79-338l185-37c34 165 149 248 351 246 184-2 324-58 324-238 0-203-207-221-372-266-210-57-422-111-422-377 0-267 201-356 470-360 279-5 430 101 480 324l-188 33c-28-141-121-215-293-213" id="v"/><path d="M162 0v-1349h919v156H353v422h668v154H353v461h769V0H162" id="w"/><path d="M1121-976c0 225-142 341-344 379L1177 0H957L591-575H353V0H162v-1349h482c281 3 477 100 477 373zM633-726c181-1 296-73 296-247 0-149-101-223-304-223H353v470h280" id="x"/><g id="b"><use transform="matrix(0.0087890625,0,0,0.0087890625,0,0)" xlink:href="#v"/><use transform="matrix(0.0087890625,0,0,0.0087890625,10.8017578125,0)" xlink:href="#w"/><use transform="matrix(0.0087890625,0,0,0.0087890625,21.603515625,0)" xlink:href="#x"/><use transform="matrix(0.0087890625,0,0,0.0087890625,32.4052734375,0)" xlink:href="#r"/><use transform="matrix(0.0087890625,0,0,0.0087890625,43.20703125,0)" xlink:href="#w"/><use transform="matrix(0.0087890625,0,0,0.0087890625,54.0087890625,0)" xlink:href="#v"/></g><path d="M713 0H515L10-1349h201C345-955 498-579 615-168c116-411 269-787 402-1181h201" id="y"/><path d="M802-711c201 25 350 118 350 331C1152-95 921 0 634 0H162v-1349c401 9 908-74 908 327 0 184-111 275-268 311zm-224-69c174-2 300-51 300-218 0-163-124-198-302-198H353v416h225zM353-153c281-2 612 44 606-244-5-271-329-233-606-234v478" id="z"/><g id="c"><use transform="matrix(0.0087890625,0,0,0.0087890625,0,0)" xlink:href="#y"/><use transform="matrix(0.0087890625,0,0,0.0087890625,10.8017578125,0)" xlink:href="#t"/><use transform="matrix(0.0087890625,0,0,0.0087890625,21.603515625,0)" xlink:href="#z"/></g><path d="M604-135c236 0 291-142 291-376v-838h190v859c5 340-142 510-480 510-326 0-463-164-463-492v-877h191v851c-3 222 46 363 271 363" id="A"/><path d="M1034 0L896-382H333L196 0H0l510-1349h217L1228 0h-194zM847-531c-77-225-157-447-231-674-69 231-154 451-232 674h463" id="B"/><path d="M-5 220v-96h1238v96H-5" id="C"/><g id="d"><use transform="matrix(0.0087890625,0,0,0.0087890625,0,0)" xlink:href="#A"/><use transform="matrix(0.0087890625,0,0,0.0087890625,10.8017578125,0)" xlink:href="#B"/><use transform="matrix(0.0087890625,0,0,0.0087890625,21.603515625,0)" xlink:href="#x"/><use transform="matrix(0.0087890625,0,0,0.0087890625,32.4052734375,0)" xlink:href="#t"/><use transform="matrix(0.0087890625,0,0,0.0087890625,43.20703125,0)" xlink:href="#C"/><use transform="matrix(0.0087890625,0,0,0.0087890625,54.0087890625,0)" xlink:href="#t"/><use transform="matrix(0.0087890625,0,0,0.0087890625,64.810546875,0)" xlink:href="#u"/></g><g id="e"><use transform="matrix(0.0087890625,0,0,0.0087890625,0,0)" xlink:href="#A"/><use transform="matrix(0.0087890625,0,0,0.0087890625,10.8017578125,0)" xlink:href="#B"/><use transform="matrix(0.0087890625,0,0,0.0087890625,21.603515625,0)" xlink:href="#x"/><use transform="matrix(0.0087890625,0,0,0.0087890625,32.4052734375,0)" xlink:href="#t"/><use transform="matrix(0.0087890625,0,0,0.0087890625,43.20703125,0)" xlink:href="#C"/><use transform="matrix(0.0087890625,0,0,0.0087890625,54.0087890625,0)" xlink:href="#x"/><use transform="matrix(0.0087890625,0,0,0.0087890625,64.810546875,0)" xlink:href="#u"/></g><path d="M202-1349h823v156H709v1037h316V0H202v-156h316v-1037H202v-156" id="D"/><path d="M611-1370c266 0 451 106 451 368 0 147-77 243-154 327-132 144-316 255-451 395-42 44-75 87-96 134h723V0H144v-117c124-264 387-411 582-603 73-72 151-147 151-271 0-161-104-231-266-231-163 0-249 90-268 238l-184-17c35-233 185-369 452-369" id="E"/><path d="M650-1214c-281 0-336 244-336 533 0 295 60 546 347 546 188 0 263-142 322-282l159 65C1058-155 935 20 659 20c-401 0-546-295-546-701 0-407 135-689 536-689 264 0 391 146 466 335l-168 65c-47-129-127-244-297-244" id="F"/><path d="M237 0v-1349h191v1193h672V0H237" id="G"/><g id="f"><use transform="matrix(0.0087890625,0,0,0.0087890625,0,0)" xlink:href="#D"/><use transform="matrix(0.0087890625,0,0,0.0087890625,10.8017578125,0)" xlink:href="#E"/><use transform="matrix(0.0087890625,0,0,0.0087890625,21.603515625,0)" xlink:href="#F"/><use transform="matrix(0.0087890625,0,0,0.0087890625,32.4052734375,0)" xlink:href="#C"/><use transform="matrix(0.0087890625,0,0,0.0087890625,43.20703125,0)" xlink:href="#v"/><use transform="matrix(0.0087890625,0,0,0.0087890625,54.0087890625,0)" xlink:href="#F"/><use transform="matrix(0.0087890625,0,0,0.0087890625,64.810546875,0)" xlink:href="#G"/></g><g id="g"><use transform="matrix(0.0087890625,0,0,0.0087890625,0,0)" xlink:href="#D"/><use transform="matrix(0.0087890625,0,0,0.0087890625,10.8017578125,0)" xlink:href="#E"/><use transform="matrix(0.0087890625,0,0,0.0087890625,21.603515625,0)" xlink:href="#F"/><use transform="matrix(0.0087890625,0,0,0.0087890625,32.4052734375,0)" xlink:href="#C"/><use transform="matrix(0.0087890625,0,0,0.0087890625,43.20703125,0)" xlink:href="#v"/><use transform="matrix(0.0087890625,0,0,0.0087890625,54.0087890625,0)" xlink:href="#r"/><use transform="matrix(0.0087890625,0,0,0.0087890625,64.810546875,0)" xlink:href="#B"/></g><path d="M334-464v-160h560v160H334" id="H"/><g id="h"><use transform="matrix(0.0087890625,0,0,0.0087890625,0,0)" xlink:href="#x"/><use transform="matrix(0.0087890625,0,0,0.0087890625,10.8017578125,0)" xlink:href="#D"/><use transform="matrix(0.0087890625,0,0,0.0087890625,21.603515625,0)" xlink:href="#v"/><use transform="matrix(0.0087890625,0,0,0.0087890625,32.4052734375,0)" xlink:href="#F"/><use transform="matrix(0.0087890625,0,0,0.0087890625,43.20703125,0)" xlink:href="#H"/><use transform="matrix(0.0087890625,0,0,0.0087890625,54.0087890625,0)" xlink:href="#y"/></g><path d="M102-681c0-398 126-689 513-689 165 0 291 58 379 174s132 287 132 515c-1 318-88 554-298 657-123 61-317 58-438-3-206-104-288-341-288-654zm749 406c94-160 97-656-5-807-57-85-130-132-231-132-104 0-178 47-234 132-101 153-99 655 1 809 57 89 130 138 232 138 109 0 184-49 237-140" id="I"/><path d="M285-1169c8 382 2 780 4 1169H129v-1349h237c86 239 188 461 253 720 69-258 169-481 255-720h225V0H937c2-390-5-788 6-1169-75 255-170 488-259 729H547c-90-240-185-475-262-729" id="J"/><g id="i"><use transform="matrix(0.0087890625,0,0,0.0087890625,0,0)" xlink:href="#x"/><use transform="matrix(0.0087890625,0,0,0.0087890625,10.8017578125,0)" xlink:href="#I"/><use transform="matrix(0.0087890625,0,0,0.0087890625,21.603515625,0)" xlink:href="#J"/></g><g id="j"><use transform="matrix(0.0087890625,0,0,0.0087890625,0,0)" xlink:href="#x"/><use transform="matrix(0.0087890625,0,0,0.0087890625,10.8017578125,0)" xlink:href="#B"/><use transform="matrix(0.0087890625,0,0,0.0087890625,21.603515625,0)" xlink:href="#J"/></g><g id="k"><use transform="matrix(0.0087890625,0,0,0.0087890625,0,0)" xlink:href="#G"/><use transform="matrix(0.0087890625,0,0,0.0087890625,10.8017578125,0)" xlink:href="#z"/><use transform="matrix(0.0087890625,0,0,0.0087890625,21.603515625,0)" xlink:href="#C"/><use transform="matrix(0.0087890625,0,0,0.0087890625,32.4052734375,0)" xlink:href="#J"/><use transform="matrix(0.0087890625,0,0,0.0087890625,43.20703125,0)" xlink:href="#A"/><use transform="matrix(0.0087890625,0,0,0.0087890625,54.0087890625,0)" xlink:href="#u"/></g><g id="l"><use transform="matrix(0.0087890625,0,0,0.0087890625,0,0)" xlink:href="#A"/><use transform="matrix(0.0087890625,0,0,0.0087890625,10.8017578125,0)" xlink:href="#B"/><use transform="matrix(0.0087890625,0,0,0.0087890625,21.603515625,0)" xlink:href="#x"/><use transform="matrix(0.0087890625,0,0,0.0087890625,32.4052734375,0)" xlink:href="#t"/></g><g id="m"><use transform="matrix(0.0087890625,0,0,0.0087890625,0,0)" xlink:href="#D"/><use transform="matrix(0.0087890625,0,0,0.0087890625,10.8017578125,0)" xlink:href="#E"/><use transform="matrix(0.0087890625,0,0,0.0087890625,21.603515625,0)" xlink:href="#F"/></g><g id="n"><use transform="matrix(0.0087890625,0,0,0.0087890625,0,0)" xlink:href="#r"/><use transform="matrix(0.0087890625,0,0,0.0087890625,10.8017578125,0)" xlink:href="#x"/><use transform="matrix(0.0087890625,0,0,0.0087890625,21.603515625,0)" xlink:href="#s"/></g><path d="M114 20l821-1504h178L296 20H114" id="K"/><use transform="matrix(0.0087890625,0,0,0.0087890625,0,0)" xlink:href="#K" id="o"/><g id="p"><use transform="matrix(0.0087890625,0,0,0.0087890625,0,0)" xlink:href="#G"/><use transform="matrix(0.0087890625,0,0,0.0087890625,10.8017578125,0)" xlink:href="#J"/><use transform="matrix(0.0087890625,0,0,0.0087890625,21.603515625,0)" xlink:href="#J"/><use transform="matrix(0.0087890625,0,0,0.0087890625,32.4052734375,0)" xlink:href="#D"/></g><path d="M912-211c-10-84-18-177-18-274v-864h172V0H836L316-1130c7 79 16 167 16 254V0H162v-1349h222" id="L"/><g id="q"><use transform="matrix(0.0087890625,0,0,0.0087890625,0,0)" xlink:href="#B"/><use transform="matrix(0.0087890625,0,0,0.0087890625,10.8017578125,0)" xlink:href="#s"/><use transform="matrix(0.0087890625,0,0,0.0087890625,21.603515625,0)" xlink:href="#s"/><use transform="matrix(0.0087890625,0,0,0.0087890625,32.4052734375,0)" xlink:href="#G"/><use transform="matrix(0.0087890625,0,0,0.0087890625,43.20703125,0)" xlink:href="#D"/><use transform="matrix(0.0087890625,0,0,0.0087890625,54.0087890625,0)" xlink:href="#F"/><use transform="matrix(0.0087890625,0,0,0.0087890625,64.810546875,0)" xlink:href="#B"/><use transform="matrix(0.0087890625,0,0,0.0087890625,75.6123046875,0)" xlink:href="#t"/><use transform="matrix(0.0087890625,0,0,0.0087890625,86.4140625,0)" xlink:href="#D"/><use transform="matrix(0.0087890625,0,0,0.0087890625,97.2158203125,0)" xlink:href="#I"/><use transform="matrix(0.0087890625,0,0,0.0087890625,108.017578125,0)" xlink:href="#L"/></g></defs></g></svg>